# xmcd CD database file
#
# Track frame offsets:
#	150
#	15200
#	31689
#	45807
#	58232
#	71442
#	85092
#	98749
#	114636
#	131873
#	145302
#	160736
#	174733
#	190213
#	200896
#
# Disc length: 2899 seconds
#
# Revision: 0
# Processed by: cddbd v1.5.2PL0 Copyright (c) Steve Scherf et al.
# Submitted via: CDex 1.70beta2
#
DISCID=c70b510f
DTITLE=NFoCCM - Cdn. - New Faces of Canadian Country Music - Hall of Fame - V3
DYEAR=1900
DGENRE=Country
TTITLE0=Holly Villenuve - Haw About You
TTITLE1=Bryan McConnel - All Over Again
TTITLE2=Amanda <eloche - What a Heart Will Do For Love
TTITLE3=Chad Boyko - Rodeo
TTITLE4=Melissa Thompson - Diary of A Daughter
TTITLE5=Leah Gale - Goodnight Kiss
TTITLE6=Chad Holliday - When Children Cry
TTITLE7=Colleen Rayner - The One
TTITLE8=Kelsey Jazen - I've Been There Too
TTITLE9=Darrell Roberts - Faithfully In Love With You
TTITLE10=Pauline Dosley - Better Days To Cry
TTITLE11=Gabe Gagnon - Natalie
TTITLE12=LeAnne Block - Scratch the Surface
TTITLE13=Donna Lantz - You're All i Need
TTITLE14=Ole Morten Anderson - lonely Train To Memphis
EXTD=
EXTT0=
EXTT1=
EXTT2=
EXTT3=
EXTT4=
EXTT5=
EXTT6=
EXTT7=
EXTT8=
EXTT9=
EXTT10=
EXTT11=
EXTT12=
EXTT13=
EXTT14=
PLAYORDER=
